Coordinates
version=1
nRows=38
nColumns=12
inDegrees=yes

Units are S.I. units (second, meters, Newtons, ...)
Angles are in degrees

endheader
time	SC_y	SC_z	SC_x	AC_y	AC_z	AC_x	GH_y	GH_z	GH_yy	EL_x	PS_y
       0.0              -11.19         -4.567          17.85          68.76         -19.91         -11.67         -106.7          -2.29         -9.518          125.5          147.6
   0.03482              -11.19         -4.564          17.86          68.76         -19.91         -11.67         -106.7          -2.29         -9.514          125.5          147.6
   0.06963               -11.2          -4.56          17.86          68.76          -19.9         -11.66         -106.7          -2.29          -9.51          125.5          147.6
    0.1045              -11.21         -4.557          17.87          68.76          -19.9         -11.66         -106.7          -2.29         -9.506          125.5          147.5
    0.1393              -11.21         -4.553          17.87          68.76         -19.89         -11.66         -106.7          -2.29         -9.502          125.5          147.5
    0.1741              -11.22         -4.548          17.88          68.76         -19.89         -11.66         -106.7          -2.29         -9.497          125.5          147.5
    0.2089              -11.23         -4.544          17.88          68.76         -19.89         -11.66         -106.7          -2.29         -9.492          125.5          147.5
    0.2437              -11.24         -4.539          17.89          68.76         -19.88         -11.66         -106.7         -2.289         -9.486          125.5          147.5
    0.2785              -11.25         -4.534           17.9          68.76         -19.88         -11.65         -106.7         -2.289          -9.48          125.5          147.5
    0.3134              -11.26         -4.529          17.91          68.76         -19.87         -11.65         -106.7         -2.289         -9.474          125.5          147.4
    0.3482              -11.27         -4.523          17.91          68.76         -19.86         -11.65         -106.7         -2.289         -9.467          125.5          147.4
     0.383              -11.28         -4.516          17.92          68.76         -19.86         -11.65         -106.7         -2.289          -9.46          125.5          147.4
    0.4178              -11.29         -4.509          17.93          68.76         -19.85         -11.64         -106.7         -2.289         -9.452          125.5          147.4
    0.4526               -11.3         -4.502          17.94          68.76         -19.84         -11.64         -106.7         -2.289         -9.443          125.5          147.3
    0.4874              -11.32         -4.494          17.95          68.76         -19.83         -11.64         -106.7         -2.289         -9.434          125.5          147.3
    0.5223              -11.33         -4.485          17.96          68.76         -19.82         -11.63         -106.7         -2.288         -9.424          125.5          147.3
    0.5571              -11.35         -4.476          17.98          68.76         -19.81         -11.63         -106.7         -2.288         -9.413          125.5          147.2
    0.5919              -11.37         -4.466          17.99          68.76          -19.8         -11.62         -106.7         -2.288         -9.401          125.5          147.2
    0.6267              -11.39         -4.454           18.0          68.76         -19.79         -11.62         -106.7         -2.288         -9.388          125.5          147.2
    0.6615              -11.41         -4.442          18.02          68.76         -19.78         -11.61         -106.7         -2.288         -9.374          125.5          147.1
    0.6963              -11.43         -4.428          18.04          68.76         -19.77         -11.61         -106.7         -2.287         -9.359          125.5          147.1
    0.7312              -11.46         -4.414          18.06          68.76         -19.75          -11.6         -106.7         -2.287         -9.342          125.5          147.0
     0.766              -11.49         -4.397          18.08          68.76         -19.73         -11.59         -106.7         -2.287         -9.323          125.5          146.9
    0.8008              -11.52         -4.379          18.11          68.76         -19.71         -11.58         -106.7         -2.286         -9.302          125.5          146.9
    0.8356              -11.56         -4.359          18.13          68.76         -19.69         -11.57         -106.7         -2.286         -9.279          125.5          146.8
    0.8704               -11.6         -4.336          18.16          68.76         -19.67         -11.56         -106.7         -2.286         -9.253          125.5          146.7
    0.9052              -11.64         -4.311           18.2          68.76         -19.64         -11.55         -106.7         -2.285         -9.224          125.5          146.6
    0.9401              -11.69         -4.282          18.23          68.76         -19.61         -11.54         -106.7         -2.284         -9.191          125.5          146.5
    0.9749              -11.75          -4.25          18.28          68.76         -19.58         -11.53         -106.7         -2.284         -9.154          125.5          146.4
      1.01              -11.81         -4.214          18.33          68.77         -19.54         -11.51         -106.8         -2.283         -9.112          125.5          146.3
     1.045              -11.89         -4.172          18.38          68.77          -19.5         -11.49         -106.8         -2.282         -9.064          125.5          146.1
     1.079              -11.97         -4.124          18.45          68.77         -19.45         -11.47         -106.8         -2.281         -9.009          125.5          145.9
     1.114              -12.07         -4.069          18.52          68.77         -19.39         -11.45         -106.8          -2.28         -8.946          125.4          145.7
     1.149              -12.18         -4.005          18.61          68.77         -19.33         -11.42         -106.8         -2.279         -8.872          125.4          145.5
     1.184              -12.31          -3.93          18.71          68.77         -19.25         -11.38         -106.8         -2.278         -8.786          125.4          145.2
     1.219              -12.47         -3.841          18.82          68.77         -19.16         -11.34         -106.9         -2.276         -8.684          125.4          144.9
     1.253              -12.65         -3.736          18.96          68.78         -19.05          -11.3         -106.9         -2.274         -8.563          125.4          144.5
     1.288              -12.88          -3.61          19.13          68.78         -18.92         -11.24         -106.9         -2.271         -8.418          125.4          144.0
